<svg xmlns="http://www.w3.org/2000/svg" version="1.1" xmlns:xlink="http://www.w3.org/1999/xlink" xmlns:svgjs="http://svgjs.dev/svgjs" width="2000" height="595" viewBox="0 0 2000 595"><g transform="matrix(1,0,0,1,-1.2121212121213603,1.1762133655474827)"><svg viewBox="0 0 396 118" data-background-color="#ffffff" preserveAspectRatio="xMidYMid meet" height="595" width="2000" xmlns="http://www.w3.org/2000/svg" xmlns:xlink="http://www.w3.org/1999/xlink"><g id="tight-bounds" transform="matrix(1,0,0,1,0.24000000000003752,-0.23326584392370364)"><svg viewBox="0 0 395.5199999999999 118.4664442053647" height="118.4664442053647" width="395.5199999999999"><g><svg viewBox="0 0 615.6931305475389 184.41286381886212" height="118.4664442053647" width="395.5199999999999"><g transform="matrix(1,0,0,1,220.1731305475389,54.33698867009628)"><svg viewBox="0 0 395.52 75.73888647866956" height="75.73888647866956" width="395.52"><g id="textblocktransform"><svg viewBox="0 0 395.52 75.73888647866956" height="75.73888647866956" width="395.52" id="textblock"><g><svg viewBox="0 0 395.52 75.73888647866956" height="75.73888647866956" width="395.52"><g transform="matrix(1,0,0,1,0,0)"><svg width="395.52" viewBox="3.49 -37.99 202.57 38.800000000000004" height="75.73888647866956" data-palette-color="#9d59d2"><path d="M3.49 0L3.49-4.2 7.01-4.2 7.01-32.79 3.49-32.79 3.49-37.06 20.14-37.01Q22.39-37.01 24.37-36.17 26.34-35.33 27.81-33.87 29.27-32.42 30.11-30.44 30.96-28.47 30.96-26.2L30.96-26.2Q30.96-23.83 29.64-21.88 28.32-19.92 25.88-18.75L25.88-18.75Q27.08-18.12 28.05-17.27 29.03-16.43 29.71-15.43 30.4-14.43 30.77-13.31 31.15-12.18 31.15-11.01L31.15-11.01Q31.15-8.69 30.31-6.69 29.47-4.69 28-3.2 26.54-1.71 24.57-0.85 22.61 0 20.36 0L20.36 0 3.49 0ZM20.41-16.46L11.79-16.46 11.79-4.2 20.41-4.2Q21.58-4.2 22.58-4.79 23.58-5.37 24.34-6.31 25.1-7.25 25.52-8.45 25.95-9.64 25.95-10.89L25.95-10.89Q25.95-11.96 25.51-12.96 25.07-13.96 24.33-14.75 23.58-15.53 22.57-15.99 21.56-16.46 20.41-16.46L20.41-16.46ZM20.19-32.79L11.79-32.79 11.79-20.7 20.19-20.7Q21.36-20.7 22.38-21.17 23.39-21.63 24.13-22.41 24.88-23.19 25.32-24.22 25.76-25.24 25.76-26.34L25.76-26.34Q25.76-27.54 25.32-28.7 24.88-29.86 24.12-30.76 23.36-31.67 22.35-32.23 21.34-32.79 20.19-32.79L20.19-32.79ZM57.96-12.06L39.74-12.06Q39.74-10.99 39.9-10.1 40.06-9.2 40.35-8.4L40.35-8.4Q41.26-5.96 43.25-4.72 45.24-3.49 47.75-3.49L47.75-3.49Q49.73-3.49 51.6-4.04 53.46-4.59 55.52-5.76L55.52-5.76 57.35-2.66Q54.86-0.95 52.34-0.12 49.83 0.71 47.12 0.71L47.12 0.71Q44.55 0.71 42.37-0.15 40.18-1 38.61-2.69 37.03-4.37 36.14-6.88 35.25-9.4 35.25-12.74L35.25-12.74Q35.25-15.45 36.01-17.86 36.77-20.26 38.27-22.06 39.77-23.85 41.99-24.9 44.21-25.95 47.17-25.95L47.17-25.95Q50.02-25.95 51.94-25.09 53.85-24.22 55.06-22.79 56.27-21.36 56.89-19.53 57.52-17.7 57.76-15.8L57.76-15.8Q57.88-14.87 57.92-13.92 57.96-12.96 57.96-12.06L57.96-12.06ZM46.85-22.14L46.85-22.14Q45.26-22.14 44.08-21.69 42.89-21.24 42.06-20.4 41.23-19.56 40.73-18.33 40.23-17.11 39.99-15.6L39.99-15.6 53.1-15.6Q53-17.02 52.65-18.21 52.29-19.41 51.56-20.29 50.83-21.17 49.68-21.66 48.53-22.14 46.85-22.14ZM84.15-26.95Q84.15-29.1 83.37-30.18 82.59-31.25 81.65-31.82 80.71-32.4 79.58-32.7 78.46-33.01 77.34-33.01L77.34-33.01Q75.48-33.01 74.09-32.58 72.7-32.15 71.78-31.42 70.87-30.69 70.41-29.71 69.94-28.74 69.94-27.66L69.94-27.66Q69.94-26.05 70.52-25.06 71.09-24.07 71.97-23.47 72.85-22.88 73.91-22.53 74.97-22.19 75.95-21.85L75.95-21.85 80.88-20.24Q83.1-19.53 84.8-18.63 86.49-17.72 87.64-16.49 88.79-15.26 89.39-13.65 89.99-12.04 89.99-9.91L89.99-9.91Q89.99-7.62 89.05-5.66 88.11-3.71 86.42-2.27 84.74-0.83 82.4-0.01 80.07 0.81 77.29 0.81L77.29 0.81Q74.43 0.81 72.41 0.16 70.38-0.49 69-1.57 67.62-2.66 66.79-4.05 65.96-5.44 65.5-6.91L65.5-6.91 63.64-6.91 63.64-11.11 69.79-11.11Q69.79-8.4 70.37-7.28 70.94-6.15 71.97-5.41 72.99-4.66 74.41-4.28 75.83-3.91 77.53-3.91L77.53-3.91Q79.19-3.91 80.52-4.3 81.86-4.69 82.8-5.43 83.74-6.18 84.24-7.24 84.74-8.3 84.74-9.64L84.74-9.64Q84.74-11.13 84.11-12.17 83.49-13.21 82.51-13.94 81.54-14.67 80.38-15.14 79.22-15.6 78.14-15.94L78.14-15.94 72.8-17.46Q71.04-17.99 69.59-18.82 68.13-19.65 67.1-20.85 66.06-22.05 65.5-23.65 64.94-25.24 64.94-27.34L64.94-27.34Q64.94-29.47 65.77-31.32 66.6-33.18 68.21-34.57 69.82-35.96 72.15-36.76 74.48-37.55 77.49-37.55L77.49-37.55Q79.46-37.55 81.14-37.08 82.81-36.62 84.16-35.78 85.52-34.94 86.56-33.75 87.59-32.57 88.3-31.15L88.3-31.15 90.13-31.15 90.13-26.95 84.15-26.95ZM93.33-12.65L93.33-12.65Q93.35-15.65 94.29-18.12 95.23-20.58 96.92-22.35 98.6-24.12 100.92-25.07 103.24-26.03 106.02-26.03L106.02-26.03Q108.83-26.03 111.16-25.07 113.49-24.12 115.15-22.38 116.81-20.63 117.74-18.16 118.67-15.7 118.67-12.7L118.67-12.7Q118.67-9.74 117.74-7.26 116.81-4.79 115.15-3 113.49-1.22 111.16-0.23 108.83 0.76 106.02 0.76L106.02 0.76Q103.17 0.76 100.85-0.22 98.53-1.2 96.87-2.97 95.21-4.74 94.28-7.2 93.35-9.67 93.33-12.65ZM98.14-12.65L98.14-12.65Q98.14-10.47 98.76-8.72 99.38-6.96 100.47-5.73 101.56-4.49 102.98-3.82 104.41-3.15 106.02-3.15L106.02-3.15Q107.71-3.15 109.16-3.81 110.61-4.47 111.69-5.7 112.76-6.93 113.37-8.69 113.98-10.45 113.98-12.65L113.98-12.65Q113.98-14.94 113.37-16.72 112.76-18.51 111.7-19.7 110.64-20.9 109.17-21.51 107.71-22.12 106.02-22.12L106.02-22.12Q104.41-22.12 102.98-21.51 101.56-20.9 100.47-19.7 99.38-18.51 98.76-16.72 98.14-14.94 98.14-12.65ZM146.43-18.55L141.84-18.55Q140.81-20.39 139.24-21.24 137.66-22.09 135.59-22.09L135.59-22.09Q134-22.09 132.61-21.44 131.22-20.78 130.18-19.56 129.14-18.33 128.54-16.59 127.94-14.84 127.94-12.7L127.94-12.7Q127.94-10.57 128.54-8.86 129.14-7.15 130.19-5.94 131.24-4.74 132.62-4.09 134-3.44 135.59-3.44L135.59-3.44Q137.93-3.44 139.66-4.58 141.4-5.71 142.42-7.91L142.42-7.91 146.18-6.05Q145.45-4.49 144.37-3.25 143.3-2 141.95-1.12 140.59-0.24 138.97 0.23 137.34 0.71 135.54 0.71L135.54 0.71Q132.9 0.71 130.67-0.28 128.43-1.27 126.81-3.05 125.19-4.83 124.28-7.3 123.38-9.77 123.38-12.7L123.38-12.7Q123.38-15.63 124.33-18.09 125.28-20.56 126.94-22.33 128.6-24.1 130.82-25.1 133.05-26.1 135.59-26.1L135.59-26.1Q137.98-26.1 140.11-25.27 142.25-24.44 143.86-22.75L143.86-22.75 146.43-22.75 146.43-18.55ZM150.67-21.09L150.67-25.29 158.92-25.29 158.92-4.2 162.73-4.2 162.73 0 150.72 0 150.72-4.2 154.33-4.2 154.33-21.09 150.67-21.09ZM153.48-34.25L153.48-34.25Q153.48-34.89 153.74-35.46 153.99-36.04 154.42-36.46 154.85-36.89 155.43-37.15 156.02-37.4 156.68-37.4L156.68-37.4Q157.31-37.4 157.89-37.15 158.46-36.89 158.89-36.46 159.31-36.04 159.57-35.46 159.83-34.89 159.83-34.25L159.83-34.25Q159.83-33.59 159.57-33.01 159.31-32.42 158.89-31.97 158.46-31.52 157.89-31.26 157.31-31.01 156.68-31.01L156.68-31.01Q156.02-31.01 155.43-31.26 154.85-31.52 154.42-31.97 153.99-32.42 153.74-33.01 153.48-33.59 153.48-34.25ZM181.77 0L181.77-2.34Q180.33-1 178.59-0.15 176.84 0.71 174.62 0.71L174.62 0.71Q172.76 0.71 171.21 0.12 169.66-0.46 168.54-1.48 167.42-2.49 166.79-3.83 166.17-5.18 166.17-6.69L166.17-6.69Q166.17-8.3 166.65-9.55 167.12-10.79 167.92-11.71 168.71-12.62 169.77-13.24 170.83-13.87 171.99-14.25 173.15-14.62 174.36-14.78 175.57-14.94 176.67-14.94L176.67-14.94Q178.43-14.94 179.62-14.83 180.82-14.72 181.8-14.53L181.8-14.53 181.82-16.6Q181.82-17.94 181.43-18.93 181.04-19.92 180.33-20.57 179.62-21.22 178.63-21.53 177.65-21.85 176.43-21.85L176.43-21.85Q175.28-21.85 174.23-21.69 173.18-21.53 172.26-21.28 171.35-21.02 170.58-20.69 169.81-20.36 169.27-20L169.27-20 167.78-23.14Q168.69-23.73 169.76-24.23 170.83-24.73 172.02-25.09 173.2-25.44 174.44-25.65 175.67-25.85 176.86-25.85L176.86-25.85Q179.06-25.85 180.82-25.33 182.58-24.8 183.8-23.71 185.02-22.61 185.68-20.91 186.34-19.21 186.34-16.85L186.34-16.85 186.31-4.2 189.12-4.2 189.12 0 181.77 0ZM175.62-3.1L175.62-3.1Q176.52-3.1 177.43-3.32 178.33-3.54 179.14-3.92 179.94-4.3 180.62-4.8 181.31-5.3 181.77-5.83L181.77-5.83 181.8-11.55 176.52-11.55Q175.2-11.55 174.12-11.25 173.03-10.96 172.24-10.4 171.44-9.84 171.01-9.01 170.57-8.18 170.57-7.1L170.57-7.1Q170.57-6.1 170.93-5.36 171.3-4.61 171.97-4.11 172.64-3.61 173.57-3.36 174.5-3.1 175.62-3.1ZM194.05-33.79L194.05-37.99 202.25-37.99 202.25-4.2 206.06-4.2 206.06 0 194.05 0 194.05-4.2 197.71-4.2 197.71-33.79 194.05-33.79Z" opacity="1" transform="matrix(1,0,0,1,0,0)" fill="#9d59d2" class="wordmark-text-0" data-fill-palette-color="primary" id="text-0"></path></svg></g></svg></g></svg></g></svg></g><g><svg viewBox="0 0 184.41286381886212 184.41286381886212" height="184.41286381886212" width="184.41286381886212"><g><svg></svg></g><g id="icon-0"><svg viewBox="0 0 184.41286381886212 184.41286381886212" height="184.41286381886212" width="184.41286381886212"><g><path d="M0 92.206c0-50.924 41.282-92.206 92.206-92.206 50.924 0 92.206 41.282 92.207 92.206 0 50.924-41.282 92.206-92.207 92.207-50.924 0-92.206-41.282-92.206-92.207zM92.206 177.583c47.152 0 85.376-38.224 85.377-85.377 0-47.152-38.224-85.376-85.377-85.376-47.152 0-85.376 38.224-85.376 85.376 0 47.152 38.224 85.376 85.376 85.377z" data-fill-palette-color="accent" fill="#9d59d2" stroke="transparent"></path></g><g transform="matrix(1,0,0,1,38.846739475447954,49.76132382821694)"><svg viewBox="0 0 106.71938486796621 84.89021616242825" height="84.89021616242825" width="106.71938486796621"><g><svg xmlns="http://www.w3.org/2000/svg" xmlns:xlink="http://www.w3.org/1999/xlink" version="1.1" x="0" y="0" viewBox="14.265999999999998 21.575 71.47 56.851" enable-background="new 0 0 100 100" xml:space="preserve" height="84.89021616242825" width="106.71938486796621" class="icon-cg-0" data-fill-palette-color="accent" id="cg-0"><g fill="#9d59d2" data-fill-palette-color="accent"><path d="M50 21.575c-4.924 0-8.92 3.973-8.92 8.841v0.028c0.028 3.273 0.76 6.91 2.223 9.82 1.436 2.91 3.715 5.176 6.697 5.176 2.982 0 5.261-2.266 6.697-5.176 1.463-2.91 2.193-6.546 2.25-9.82v-0.028C58.947 25.548 54.924 21.575 50 21.575L50 21.575zM50 23.142c4.08 0 7.343 3.246 7.343 7.274-0.027 3.049-0.787 6.519-2.082 9.148s-3.066 4.28-5.261 4.28c-2.195 0-3.968-1.65-5.262-4.28-1.295-2.63-2.055-6.099-2.082-9.148C42.657 26.387 45.92 23.142 50 23.142L50 23.142zM30.473 26.611c-4.192 0-7.597 3.385-7.597 7.526 0.028 2.77 0.675 5.819 1.885 8.281s3.151 4.42 5.712 4.42 4.474-1.958 5.712-4.42c1.21-2.462 1.856-5.511 1.885-8.281C38.07 29.996 34.637 26.611 30.473 26.611L30.473 26.611zM69.527 26.611c-4.164 0-7.598 3.385-7.598 7.526 0.029 2.77 0.676 5.819 1.885 8.281 1.238 2.462 3.152 4.42 5.713 4.42s4.502-1.958 5.711-4.42c1.211-2.462 1.857-5.511 1.887-8.281C77.125 29.996 73.719 26.611 69.527 26.611L69.527 26.611zM30.473 28.178c3.32 0 5.993 2.658 5.993 5.959-0.028 2.518-0.619 5.428-1.716 7.61-1.069 2.154-2.533 3.525-4.277 3.525-1.745 0-3.18-1.371-4.277-3.525-1.069-2.182-1.688-5.092-1.745-7.61C24.452 30.835 27.153 28.178 30.473 28.178L30.473 28.178zM69.527 28.178c3.32 0 6.021 2.658 6.021 5.959-0.057 2.518-0.676 5.428-1.744 7.61-1.098 2.154-2.533 3.525-4.277 3.525s-3.207-1.371-4.277-3.525c-1.098-2.182-1.688-5.092-1.717-7.61C63.533 30.835 66.207 28.178 69.527 28.178L69.527 28.178zM50 46.727c-4.023 0-7.766 1.399-10.833 3.805-2.505-1.818-5.487-2.881-8.694-2.881-9.004 0-16.207 8.309-16.207 18.409 0 1.119 0.084 2.21 0.253 3.273l0.056 0.336 0.253 0.168c4.193 2.882 9.651 4.616 15.645 4.616 1.041 0 2.026-0.057 3.039-0.168 4.643 2.602 10.327 4.141 16.489 4.141 6.162 0 11.873-1.539 16.515-4.141 0.986 0.084 1.998 0.168 3.012 0.168 5.992 0 11.451-1.734 15.645-4.616l0.252-0.168 0.057-0.336c0.17-1.063 0.254-2.154 0.254-3.273 0-10.1-7.203-18.409-16.207-18.409-3.207 0-6.189 1.063-8.695 2.881C57.766 48.125 54.023 46.727 50 46.727L50 46.727zM50 48.293c9.707 0 17.669 9.008 17.669 20.284 0 1.118-0.113 2.21-0.254 3.272C62.773 74.928 56.697 76.857 50 76.857c-6.697 0-12.774-1.93-17.417-5.035-0.141-1.063-0.253-2.127-0.253-3.245C32.33 57.302 40.293 48.293 50 48.293L50 48.293zM30.473 49.245c2.701 0 5.233 0.839 7.428 2.322-4.389 4.029-7.146 10.184-7.146 17.011 0 1.314 0.084 2.602 0.281 3.86l0.056 0.308 0.113 0.112c-0.253 0-0.479 0.027-0.731 0.027-5.543 0-10.551-1.595-14.435-4.168-0.112-0.867-0.197-1.734-0.197-2.658C15.842 56.687 22.454 49.245 30.473 49.245L30.473 49.245zM69.527 49.245c8.02 0 14.631 7.442 14.631 16.814 0 0.924-0.084 1.791-0.197 2.658-3.883 2.573-8.891 4.168-14.434 4.168-0.225 0-0.479-0.027-0.703-0.027l0.084-0.084 0.057-0.308c0.197-1.26 0.281-2.574 0.281-3.889 0-6.827-2.758-12.981-7.146-17.011C64.293 50.084 66.826 49.245 69.527 49.245L69.527 49.245z" fill="#9d59d2" data-fill-palette-color="accent"></path></g></svg></g></svg></g></svg></g></svg></g></svg></g><defs></defs></svg><rect width="395.5199999999999" height="118.4664442053647" fill="none" stroke="none" visibility="hidden"></rect></g></svg></g></svg>